<?xml version="1.0" encoding="UTF-8" standalone="no"?>
<svg
   width="150.58"
   height="85.559998"
   version="1.0"
   viewBox="0 0 120.46262 68.445632"
   id="svg11"
   sodipodi:docname="lernstick_brandings-objects-inkscape.svg"
   inkscape:version="1.3 (0e150ed, 2023-07-21)"
   xml:space="preserve"
   inkscape:export-filename="lernstick_brandings-objects-custom.png"
   inkscape:export-xdpi="165.14999"
   inkscape:export-ydpi="165.14999"
   xmlns:inkscape="http://www.inkscape.org/namespaces/inkscape"
   xmlns:sodipodi="http://sodipodi.sourceforge.net/DTD/sodipodi-0.dtd"
   xmlns:xlink="http://www.w3.org/1999/xlink"
   xmlns="http://www.w3.org/2000/svg"
   xmlns:svg="http://www.w3.org/2000/svg"
   xmlns:rdf="http://www.w3.org/1999/02/22-rdf-syntax-ns#"
   xmlns:cc="http://creativecommons.org/ns#"
   xmlns:dc="http://purl.org/dc/elements/1.1/"><defs
     id="defs11"><linearGradient
       id="swatch1"
       inkscape:swatch="solid"
       inkscape:label="custom"><stop
         style="stop-color:#669acc;stop-opacity:1;"
         offset="0"
         id="stop1" /></linearGradient><linearGradient
       id="swatch4"
       inkscape:swatch="solid"
       inkscape:label="exam"><stop
         style="stop-color:#9acd34;stop-opacity:1;"
         offset="0"
         id="stop4" /></linearGradient><linearGradient
       id="swatch14"
       inkscape:swatch="solid"
       inkscape:label="orange"><stop
         style="stop-color:#fac300;stop-opacity:1;"
         offset="0"
         id="stop14" /></linearGradient><linearGradient
       id="swatch13"
       inkscape:swatch="solid"
       inkscape:label="blaugrau"><stop
         style="stop-color:#697d91;stop-opacity:1;"
         offset="0"
         id="stop13" /></linearGradient><linearGradient
       id="swatch12"
       inkscape:swatch="solid"
       inkscape:label="edu"><stop
         style="stop-color:#66cccd;stop-opacity:1;"
         offset="0"
         id="stop12" /></linearGradient><linearGradient
       id="swatch11"
       inkscape:swatch="solid"
       inkscape:label="black"><stop
         style="stop-color:#000000;stop-opacity:1;"
         offset="0"
         id="stop11" /></linearGradient><rect
       x="2.7058959"
       y="73.059189"
       width="105.8306"
       height="29.564419"
       id="rect11" /><linearGradient
       inkscape:collect="always"
       xlink:href="#swatch11"
       id="linearGradient15"
       x1="8.5799999"
       y1="68.800003"
       x2="183.56"
       y2="68.800003"
       gradientUnits="userSpaceOnUse" /><linearGradient
       inkscape:collect="always"
       xlink:href="#swatch11"
       id="linearGradient16"
       x1="8.3500004"
       y1="29.094999"
       x2="79.453758"
       y2="29.094999"
       gradientUnits="userSpaceOnUse" /><linearGradient
       inkscape:collect="always"
       xlink:href="#swatch4"
       id="linearGradient17"
       gradientUnits="userSpaceOnUse"
       x1="8.3500004"
       y1="29.094999"
       x2="79.453758"
       y2="29.094999" /><linearGradient
       inkscape:collect="always"
       xlink:href="#swatch11"
       id="linearGradient18"
       gradientUnits="userSpaceOnUse"
       x1="8.3500004"
       y1="29.094999"
       x2="79.453758"
       y2="29.094999" /><linearGradient
       inkscape:collect="always"
       xlink:href="#swatch1"
       id="linearGradient19"
       gradientUnits="userSpaceOnUse"
       x1="8.3500004"
       y1="29.094999"
       x2="79.453758"
       y2="29.094999" /><linearGradient
       inkscape:collect="always"
       xlink:href="#swatch11"
       id="linearGradient20"
       gradientUnits="userSpaceOnUse"
       x1="8.5799999"
       y1="68.800003"
       x2="183.56"
       y2="68.800003" /><linearGradient
       inkscape:collect="always"
       xlink:href="#swatch11"
       id="linearGradient21"
       gradientUnits="userSpaceOnUse"
       x1="8.5799999"
       y1="68.800003"
       x2="183.56"
       y2="68.800003" /><linearGradient
       inkscape:collect="always"
       xlink:href="#swatch11"
       id="linearGradient22"
       gradientUnits="userSpaceOnUse"
       x1="8.5799999"
       y1="68.800003"
       x2="183.56"
       y2="68.800003" /><linearGradient
       inkscape:collect="always"
       xlink:href="#swatch11"
       id="linearGradient23"
       gradientUnits="userSpaceOnUse"
       x1="8.5799999"
       y1="68.800003"
       x2="183.56"
       y2="68.800003" /><linearGradient
       inkscape:collect="always"
       xlink:href="#swatch11"
       id="linearGradient24"
       gradientUnits="userSpaceOnUse"
       x1="8.5799999"
       y1="68.800003"
       x2="183.56"
       y2="68.800003" /><linearGradient
       inkscape:collect="always"
       xlink:href="#swatch11"
       id="linearGradient25"
       gradientUnits="userSpaceOnUse"
       x1="8.5799999"
       y1="68.800003"
       x2="183.56"
       y2="68.800003" /><linearGradient
       inkscape:collect="always"
       xlink:href="#swatch11"
       id="linearGradient26"
       gradientUnits="userSpaceOnUse"
       x1="8.5799999"
       y1="68.800003"
       x2="183.56"
       y2="68.800003" /><linearGradient
       inkscape:collect="always"
       xlink:href="#swatch11"
       id="linearGradient27"
       gradientUnits="userSpaceOnUse"
       x1="8.5799999"
       y1="68.800003"
       x2="183.56"
       y2="68.800003" /><linearGradient
       inkscape:collect="always"
       xlink:href="#swatch11"
       id="linearGradient28"
       gradientUnits="userSpaceOnUse"
       x1="8.5799999"
       y1="68.800003"
       x2="183.56"
       y2="68.800003" /><linearGradient
       inkscape:collect="always"
       xlink:href="#swatch11"
       id="linearGradient29"
       gradientUnits="userSpaceOnUse"
       x1="8.5799999"
       y1="68.800003"
       x2="183.56"
       y2="68.800003" /><linearGradient
       inkscape:collect="always"
       xlink:href="#swatch12"
       id="linearGradient158"
       gradientUnits="userSpaceOnUse" /><rect
       x="2.7058959"
       y="73.059189"
       width="105.8306"
       height="29.564419"
       id="rect4" /><linearGradient
       inkscape:collect="always"
       xlink:href="#swatch4"
       id="linearGradient4" /><rect
       x="2.7058959"
       y="73.059189"
       width="105.8306"
       height="29.564419"
       id="rect5" /><linearGradient
       inkscape:collect="always"
       xlink:href="#swatch1"
       id="linearGradient1"
       x1="3.4410781"
       y1="81.908959"
       x2="75.652292"
       y2="81.908959"
       gradientUnits="userSpaceOnUse" /></defs><sodipodi:namedview
     id="namedview11"
     pagecolor="#ffffff"
     bordercolor="#000000"
     borderopacity="0.25"
     inkscape:showpageshadow="2"
     inkscape:pageopacity="0.0"
     inkscape:pagecheckerboard="0"
     inkscape:deskcolor="#d1d1d1"
     inkscape:zoom="7.5667206"
     inkscape:cx="35.616486"
     inkscape:cy="48.039305"
     inkscape:window-width="1440"
     inkscape:window-height="900"
     inkscape:window-x="1438"
     inkscape:window-y="25"
     inkscape:window-maximized="0"
     inkscape:current-layer="svg11"
     showguides="true"
     showgrid="false" /><metadata
     id="metadata1"><rdf:RDF><cc:Work
         rdf:about=""><dc:format>image/svg+xml</dc:format><dc:type
           rdf:resource="http://purl.org/dc/dcmitype/StillImage" /></cc:Work></rdf:RDF></metadata><g
     transform="translate(-90.877973,-67.619786)"
     id="g11"><g
       transform="matrix(0.68584073,0,0,0.68584073,85.551198,63.56444)"
       id="g3"
       style="display:inline;fill:url(#linearGradient16)"><path
         d="M 39.61,45.57 H 10.05 c -0.94,0 -1.7,-0.76 -1.7,-1.7 V 14.32 c 0,-0.94 0.76,-1.7 1.7,-1.7 h 29.56 c 0.94,0 1.7,0.76 1.7,1.7 v 29.56 c 0,0.93 -0.76,1.69 -1.7,1.69 z"
         fill="#697d91"
         id="path1"
         style="fill:url(#linearGradient18)" /><g
         fill="#fac300"
         id="g2"
         style="display:inline;fill:url(#linearGradient17)"><path
           class="st0"
           d="M 78.95,27.89 58.05,6.99 c -0.66,-0.66 -1.74,-0.66 -2.41,0 L 42.32,20.31 h 10.56 c 0.94,0 1.7,0.76 1.7,1.7 v 14.16 c 0,0.94 -0.76,1.7 -1.7,1.7 H 42.32 L 55.65,51.2 c 0.66,0.66 1.74,0.66 2.41,0 l 20.9,-20.9 c 0.66,-0.67 0.66,-1.74 -0.01,-2.41 z"
           fill="#fac300"
           id="path2"
           style="fill:url(#linearGradient19)" /></g></g><g
       transform="matrix(0.68255721,0,0,0.68255721,85.644824,63.596744)"
       fill="#697d91"
       id="g10"
       style="display:inline;fill:url(#linearGradient15)"><path
         d="M 10.48,74.67 V 52.58 h -1.9 v 22.09 c 0,5.74 4.67,10.42 10.42,10.42 v -1.9 c -4.7,-0.01 -8.52,-3.83 -8.52,-8.52 z"
         id="path3"
         style="fill:url(#linearGradient20)" /><path
         d="M 115.9,74.67 V 59.76 h 4.95 v -1.9 H 115.9 V 52.58 H 114 v 5.28 h -3.4 v 1.9 h 3.4 v 14.91 c 0,5.74 4.67,10.42 10.42,10.42 v -1.9 c -4.7,-0.01 -8.52,-3.83 -8.52,-8.52 z"
         id="path4"
         style="fill:url(#linearGradient21)" /><path
         d="M 47.6,69.46 V 84.7 h 1.9 V 69.46 c 0,-4.6 3.74,-8.35 8.35,-8.35 v -1.9 C 52.2,59.2 47.6,63.8 47.6,69.46 Z"
         id="path5"
         style="fill:url(#linearGradient22)" /><path
         d="m 72.66,58.97 c -5.7,0 -10.34,4.64 -10.34,10.34 V 84.7 h 1.9 V 69.31 c 0,-4.65 3.79,-8.44 8.44,-8.44 4.65,0 8.44,3.79 8.44,8.44 V 84.7 H 83 V 69.31 C 83,63.61 78.36,58.97 72.66,58.97 Z"
         id="path6"
         style="fill:url(#linearGradient23)" /><path
         d="m 42.45,69.36 c 0,-5.68 -4.63,-10.3 -10.31,-10.3 -5.68,0 -10.31,4.62 -10.31,10.31 v 5.41 c 0,5.68 4.63,10.3 10.31,10.3 4.34,0 8.24,-2.74 9.7,-6.83 l -1.79,-0.64 c -1.19,3.33 -4.37,5.57 -7.91,5.57 -4.63,0 -8.4,-3.77 -8.4,-8.4 v -1.14 l 18.71,-4.05 z m -18.71,0.01 c 0,-4.63 3.77,-8.4 8.4,-8.4 4.19,0 7.66,3.09 8.29,7.1 l -16.7,3.62 v -2.32 z"
         id="path7"
         style="fill:url(#linearGradient24)" /><path
         d="m 147.39,83.18 c -4.63,0 -8.4,-3.77 -8.4,-8.4 v -5.41 c 0,-4.63 3.77,-8.4 8.4,-8.4 3.29,0 6.3,1.94 7.66,4.94 l 1.73,-0.79 c -1.67,-3.68 -5.36,-6.05 -9.39,-6.05 -5.68,0 -10.31,4.62 -10.31,10.31 v 5.41 c 0,5.68 4.63,10.3 10.31,10.3 4.34,0 8.24,-2.74 9.71,-6.83 l -1.79,-0.64 c -1.2,3.32 -4.38,5.56 -7.92,5.56 z"
         id="path8"
         style="fill:url(#linearGradient25)" /><polygon
         points="163.48,84.69 163.48,73.36 167.5,70.59 182.23,84.84 183.56,83.47 169.1,69.48 181.91,60.66 180.83,59.09 163.48,71.04 163.48,52.58 161.58,52.58 161.58,84.69 "
         id="polygon8"
         style="fill:url(#linearGradient26)" /><path
         d="M 107.98,73.02 90.01,69.14 c 0.07,-4.57 3.81,-8.27 8.4,-8.27 3.54,0 6.72,2.24 7.91,5.57 l 1.79,-0.64 c -1.46,-4.08 -5.36,-6.83 -9.7,-6.83 -5.68,0 -10.3,4.62 -10.31,10.3 v 0.63 c 0,0.25 0.11,0.51 0.29,0.68 0.13,0.13 0.29,0.22 0.47,0.26 l 17.95,3.88 c -0.02,4.62 -3.78,8.37 -8.4,8.37 -3.63,0 -6.84,-2.31 -7.98,-5.76 l -1.81,0.6 c 1.4,4.23 5.33,7.06 9.79,7.06 5.68,0 10.31,-4.62 10.31,-10.3 l 0.01,-0.74 c 0.01,-0.45 -0.31,-0.84 -0.75,-0.93 z"
         id="path9"
         style="fill:url(#linearGradient27)" /><rect
         x="128.47"
         y="59.66"
         width="1.9"
         height="25.02"
         id="rect9"
         style="fill:url(#linearGradient28)" /><path
         d="m 129.42,52.51 c -0.71,0 -1.29,0.58 -1.29,1.29 0,0.71 0.58,1.29 1.29,1.29 0.71,0 1.29,-0.58 1.29,-1.29 0,-0.71 -0.58,-1.29 -1.29,-1.29 z"
         id="path10"
         style="fill:url(#linearGradient29)" /></g><text
       xml:space="preserve"
       transform="matrix(0.82761519,0,0,0.82761519,89.135088,63.540234)"
       id="text11"
       style="font-style:normal;font-variant:normal;font-weight:normal;font-stretch:normal;font-size:12px;font-family:'Source Sans 3';-inkscape-font-specification:'Source Sans 3, Normal';font-variant-ligatures:normal;font-variant-caps:normal;font-variant-numeric:normal;font-variant-east-asian:normal;letter-spacing:3.18985px;white-space:pre;shape-inside:url(#rect11);display:none;fill:url(#linearGradient4)"
       inkscape:label="exam"
       sodipodi:insensitive="true"><tspan
         x="2.7050781"
         y="87.124959"
         id="tspan3"><tspan
           style="font-weight:bold;font-size:16px;-inkscape-font-specification:'Source Sans 3, Bold'"
           id="tspan2">EXAM</tspan></tspan></text><text
       xml:space="preserve"
       transform="matrix(0.82761519,0,0,0.82761519,89.135088,63.540234)"
       id="text4"
       style="font-style:normal;font-variant:normal;font-weight:normal;font-stretch:normal;font-size:12px;font-family:'Source Sans 3';-inkscape-font-specification:'Source Sans 3, Normal';font-variant-ligatures:normal;font-variant-caps:normal;font-variant-numeric:normal;font-variant-east-asian:normal;letter-spacing:2.74521px;white-space:pre;shape-inside:url(#rect4);display:none;fill:url(#linearGradient158)"
       inkscape:label="edu"
       sodipodi:insensitive="true"><tspan
         x="2.7050781"
         y="87.124959"
         id="tspan5"><tspan
           style="font-weight:bold;font-size:16px;-inkscape-font-specification:'Source Sans 3, Bold'"
           id="tspan4">EDU</tspan></tspan></text><text
       xml:space="preserve"
       transform="matrix(0.82761519,0,0,0.82761519,89.135088,63.540234)"
       id="text5"
       style="font-style:normal;font-variant:normal;font-weight:normal;font-stretch:normal;font-size:12px;font-family:'Source Sans 3';-inkscape-font-specification:'Source Sans 3, Normal';font-variant-ligatures:normal;font-variant-caps:normal;font-variant-numeric:normal;font-variant-east-asian:normal;letter-spacing:2.89987px;white-space:pre;shape-inside:url(#rect5);display:inline;fill:url(#linearGradient1);fill-opacity:1"
       inkscape:label="custom"><tspan
         x="2.7050781"
         y="87.124959"
         id="tspan7"><tspan
           style="font-weight:bold;font-size:16px;-inkscape-font-specification:'Source Sans 3, Bold'"
           id="tspan6">CUSTOM</tspan></tspan></text></g></svg>
