<?xml version="1.0" encoding="UTF-8" standalone="no"?>
<svg
   xmlns:dc="http://purl.org/dc/elements/1.1/"
   xmlns:cc="http://creativecommons.org/ns#"
   xmlns:rdf="http://www.w3.org/1999/02/22-rdf-syntax-ns#"
   xmlns:svg="http://www.w3.org/2000/svg"
   xmlns="http://www.w3.org/2000/svg"
   xmlns:sodipodi="http://sodipodi.sourceforge.net/DTD/sodipodi-0.dtd"
   xmlns:inkscape="http://www.inkscape.org/namespaces/inkscape"
   version="1.1"
   id="lernstick"
   x="0px"
   y="0px"
   viewBox="0 0 191.91 112.41"
   style="enable-background:new 0 0 191.91 112.41;"
   xml:space="preserve"
   sodipodi:docname="lernstick_title-logo-inkscape.svg"
   inkscape:version="1.0.2 (e86c870879, 2021-01-15)"><metadata
   id="metadata176"><rdf:RDF><cc:Work
       rdf:about=""><dc:format>image/svg+xml</dc:format><dc:type
         rdf:resource="http://purl.org/dc/dcmitype/StillImage" /><dc:title></dc:title></cc:Work></rdf:RDF></metadata><defs
   id="defs174" /><sodipodi:namedview
   pagecolor="#ffffff"
   bordercolor="#666666"
   borderopacity="1"
   objecttolerance="10"
   gridtolerance="10"
   guidetolerance="10"
   inkscape:pageopacity="0"
   inkscape:pageshadow="2"
   inkscape:window-width="1807"
   inkscape:window-height="1005"
   id="namedview172"
   showgrid="false"
   inkscape:zoom="4.0935628"
   inkscape:cx="46.166382"
   inkscape:cy="59.126636"
   inkscape:window-x="0"
   inkscape:window-y="27"
   inkscape:window-maximized="0"
   inkscape:current-layer="g159" />
<style
   type="text/css"
   id="style129">
	.st0{fill:#FF6633;}
</style>
<g
   id="g151"
   style="fill:#697d91;fill-opacity:1">
	<path
   d="M10.48,74.67V52.58h-1.9v22.09c0,5.74,4.67,10.42,10.42,10.42v-1.9C14.3,83.18,10.48,79.36,10.48,74.67z"
   id="path131"
   style="fill:#697d91;fill-opacity:1" />
	<path
   d="M115.9,74.67V59.76h4.95v-1.9h-4.95v-5.28h-1.9v5.28h-3.4v1.9h3.4v14.91c0,5.74,4.67,10.42,10.42,10.42v-1.9   C119.72,83.18,115.9,79.36,115.9,74.67z"
   id="path133"
   style="fill:#697d91;fill-opacity:1" />
	<path
   d="M47.6,69.46V84.7h1.9V69.46c0-4.6,3.74-8.35,8.35-8.35v-1.9C52.2,59.2,47.6,63.8,47.6,69.46z"
   id="path135"
   style="fill:#697d91;fill-opacity:1" />
	<path
   d="M72.66,58.97c-5.7,0-10.34,4.64-10.34,10.34V84.7h1.9V69.31c0-4.65,3.79-8.44,8.44-8.44s8.44,3.79,8.44,8.44V84.7H83V69.31   C83,63.61,78.36,58.97,72.66,58.97z"
   id="path137"
   style="fill:#697d91;fill-opacity:1" />
	<path
   d="M42.45,69.36L42.45,69.36L42.45,69.36c0-5.68-4.63-10.3-10.31-10.3c-5.68,0-10.31,4.62-10.31,10.31v5.41c0,0,0,0,0,0   c0,5.68,4.63,10.3,10.31,10.3c4.34,0,8.24-2.74,9.7-6.83l-1.79-0.64c-1.19,3.33-4.37,5.57-7.91,5.57c-4.63,0-8.4-3.77-8.4-8.4   v-1.14l18.71-4.05L42.45,69.36L42.45,69.36C42.45,69.37,42.45,69.37,42.45,69.36z M23.74,69.37c0-4.63,3.77-8.4,8.4-8.4   c4.19,0,7.66,3.09,8.29,7.1l-16.7,3.62V69.37z"
   id="path139"
   style="fill:#697d91;fill-opacity:1" />
	<path
   d="M147.39,83.18c-4.63,0-8.4-3.77-8.4-8.4v-5.41c0-4.63,3.77-8.4,8.4-8.4c3.29,0,6.3,1.94,7.66,4.94l1.73-0.79   c-1.67-3.68-5.36-6.05-9.39-6.05c-5.68,0-10.31,4.62-10.31,10.31v5.41c0,0,0,0,0,0c0,5.68,4.63,10.3,10.31,10.3   c4.34,0,8.24-2.74,9.71-6.83l-1.79-0.64C154.11,80.94,150.93,83.18,147.39,83.18z"
   id="path141"
   style="fill:#697d91;fill-opacity:1" />
	<polygon
   points="182.23,84.84 183.56,83.47 169.1,69.48 181.91,60.66 180.83,59.09 163.48,71.04 163.48,52.58 161.58,52.58    161.58,84.69 163.48,84.69 163.48,73.36 167.5,70.59  "
   id="polygon143"
   style="fill:#697d91;fill-opacity:1" />
	<path
   d="M107.98,73.02l-17.97-3.88c0.07-4.57,3.81-8.27,8.4-8.27c3.54,0,6.72,2.24,7.91,5.57l1.79-0.64   c-1.46-4.08-5.36-6.83-9.7-6.83c-5.68,0-10.3,4.62-10.31,10.3c0,0,0,0,0,0v0.63c0,0.25,0.11,0.51,0.29,0.68   c0.13,0.13,0.29,0.22,0.47,0.26l17.95,3.88c-0.02,4.62-3.78,8.37-8.4,8.37c-3.63,0-6.84-2.31-7.98-5.76l-1.81,0.6   c1.4,4.23,5.33,7.06,9.79,7.06c5.68,0,10.31-4.62,10.31-10.3l0.01-0.74C108.74,73.5,108.42,73.11,107.98,73.02z"
   id="path145"
   style="fill:#697d91;fill-opacity:1" />
	<rect
   x="128.47"
   y="59.66"
   width="1.9"
   height="25.02"
   id="rect147"
   style="fill:#697d91;fill-opacity:1" />
	<path
   d="M129.42,52.51c-0.71,0-1.29,0.58-1.29,1.29s0.58,1.29,1.29,1.29s1.29-0.58,1.29-1.29S130.13,52.51,129.42,52.51z"
   id="path149"
   style="fill:#697d91;fill-opacity:1" />
</g>
<g
   id="g159">
	<path
   d="M39.61,45.57H10.05c-0.94,0-1.7-0.76-1.7-1.7V14.32c0-0.94,0.76-1.7,1.7-1.7h29.56c0.94,0,1.7,0.76,1.7,1.7v29.56   C41.31,44.81,40.55,45.57,39.61,45.57z"
   id="path153"
   style="fill:#697d91;fill-opacity:1" />
	<g
   id="g157"
   style="fill:#fac300;fill-opacity:1">
		<path
   class="st0"
   d="M78.95,27.89l-20.9-20.9c-0.66-0.66-1.74-0.66-2.41,0L42.32,20.31h10.56c0.94,0,1.7,0.76,1.7,1.7v14.16    c0,0.94-0.76,1.7-1.7,1.7H42.32L55.65,51.2c0.66,0.66,1.74,0.66,2.41,0l20.9-20.9C79.62,29.63,79.62,28.56,78.95,27.89z"
   id="path155"
   style="fill:#fac300;fill-opacity:1" />
	</g>
</g>
<g
   id="g161">
</g>
<g
   id="g163">
</g>
<g
   id="g165">
</g>
<g
   id="g167">
</g>
<g
   id="g169">
</g>
</svg>
