<?xml version="1.0" encoding="UTF-8" standalone="no"?>
<svg
   width="108.26"
   height="108.26"
   version="1.0"
   viewBox="0 0 86.60703 86.605"
   id="svg11"
   sodipodi:docname="lernstick_windows-inkscape.svg"
   inkscape:version="1.3 (0e150ed, 2023-07-21)"
   inkscape:export-filename="lernstick_windows1024.png"
   inkscape:export-xdpi="908.03619"
   inkscape:export-ydpi="908.03619"
   xmlns:inkscape="http://www.inkscape.org/namespaces/inkscape"
   xmlns:sodipodi="http://sodipodi.sourceforge.net/DTD/sodipodi-0.dtd"
   xmlns:xlink="http://www.w3.org/1999/xlink"
   xmlns="http://www.w3.org/2000/svg"
   xmlns:svg="http://www.w3.org/2000/svg"
   xmlns:rdf="http://www.w3.org/1999/02/22-rdf-syntax-ns#"
   xmlns:cc="http://creativecommons.org/ns#"
   xmlns:dc="http://purl.org/dc/elements/1.1/">
  <defs
     id="defs11">
    <linearGradient
       id="swatch57"
       inkscape:swatch="solid">
      <stop
         style="stop-color:#52095c;stop-opacity:1;"
         offset="0"
         id="stop57" />
    </linearGradient>
    <linearGradient
       id="swatch33"
       inkscape:swatch="solid">
      <stop
         style="stop-color:#000000;stop-opacity:1;"
         offset="0"
         id="stop33" />
    </linearGradient>
    <linearGradient
       id="swatch32"
       inkscape:swatch="solid">
      <stop
         style="stop-color:#696969;stop-opacity:1;"
         offset="0"
         id="stop32" />
    </linearGradient>
    <linearGradient
       id="swatch31"
       inkscape:swatch="solid">
      <stop
         style="stop-color:#565656;stop-opacity:1;"
         offset="0"
         id="stop31" />
    </linearGradient>
    <linearGradient
       id="swatch1"
       inkscape:swatch="solid">
      <stop
         style="stop-color:#ababab;stop-opacity:1;"
         offset="0"
         id="stop1" />
    </linearGradient>
    <filter
       inkscape:collect="always"
       style="color-interpolation-filters:sRGB"
       id="filter27"
       x="-0.014509048"
       y="-0.014509048"
       width="1.0290181"
       height="1.0290181">
      <feGaussianBlur
         inkscape:collect="always"
         stdDeviation="0.43526654"
         id="feGaussianBlur27" />
    </filter>
    <linearGradient
       inkscape:collect="always"
       xlink:href="#swatch1"
       id="linearGradient1"
       x1="2.58639"
       y1="43.3025"
       x2="84.02064"
       y2="43.3025"
       gradientUnits="userSpaceOnUse"
       gradientTransform="matrix(1.1766153,0,0,1.1766153,-7.6481009,-7.6479244)" />
    <linearGradient
       inkscape:collect="always"
       xlink:href="#swatch32"
       id="linearGradient32"
       x1="8.58"
       y1="68.8"
       x2="183.56"
       y2="68.8"
       gradientUnits="userSpaceOnUse" />
    <linearGradient
       inkscape:collect="always"
       xlink:href="#swatch31"
       id="linearGradient38"
       gradientUnits="userSpaceOnUse"
       x1="8.5799999"
       y1="68.800003"
       x2="183.56"
       y2="68.800003" />
    <linearGradient
       inkscape:collect="always"
       xlink:href="#swatch31"
       id="linearGradient40"
       gradientUnits="userSpaceOnUse"
       x1="8.5799999"
       y1="68.800003"
       x2="183.56"
       y2="68.800003" />
    <linearGradient
       inkscape:collect="always"
       xlink:href="#swatch31"
       id="linearGradient42"
       gradientUnits="userSpaceOnUse"
       x1="8.5799999"
       y1="68.800003"
       x2="183.56"
       y2="68.800003" />
    <linearGradient
       inkscape:collect="always"
       xlink:href="#swatch31"
       id="linearGradient44"
       gradientUnits="userSpaceOnUse"
       x1="8.5799999"
       y1="68.800003"
       x2="183.56"
       y2="68.800003" />
    <linearGradient
       inkscape:collect="always"
       xlink:href="#swatch31"
       id="linearGradient46"
       gradientUnits="userSpaceOnUse"
       x1="8.5799999"
       y1="68.800003"
       x2="183.56"
       y2="68.800003" />
    <linearGradient
       inkscape:collect="always"
       xlink:href="#swatch31"
       id="linearGradient48"
       gradientUnits="userSpaceOnUse"
       x1="8.5799999"
       y1="68.800003"
       x2="183.56"
       y2="68.800003" />
    <linearGradient
       inkscape:collect="always"
       xlink:href="#swatch31"
       id="linearGradient50"
       gradientUnits="userSpaceOnUse"
       x1="8.5799999"
       y1="68.800003"
       x2="183.56"
       y2="68.800003" />
    <linearGradient
       inkscape:collect="always"
       xlink:href="#swatch31"
       id="linearGradient52"
       gradientUnits="userSpaceOnUse"
       x1="8.5799999"
       y1="68.800003"
       x2="183.56"
       y2="68.800003" />
    <linearGradient
       inkscape:collect="always"
       xlink:href="#swatch31"
       id="linearGradient54"
       gradientUnits="userSpaceOnUse"
       x1="8.5799999"
       y1="68.800003"
       x2="183.56"
       y2="68.800003" />
    <linearGradient
       inkscape:collect="always"
       xlink:href="#swatch31"
       id="linearGradient56"
       gradientUnits="userSpaceOnUse"
       x1="8.5799999"
       y1="68.800003"
       x2="183.56"
       y2="68.800003" />
    <linearGradient
       inkscape:collect="always"
       xlink:href="#swatch32"
       id="linearGradient57"
       x1="91.464287"
       y1="110.33454"
       x2="175.27913"
       y2="110.33454"
       gradientUnits="userSpaceOnUse" />
    <linearGradient
       inkscape:collect="always"
       xlink:href="#swatch31"
       id="linearGradient58"
       gradientUnits="userSpaceOnUse"
       x1="91.464287"
       y1="110.33454"
       x2="175.27913"
       y2="110.33454" />
    <filter
       inkscape:collect="always"
       style="color-interpolation-filters:sRGB"
       id="filter59"
       x="-0.0054267423"
       y="-0.00095056475"
       width="1.011546"
       height="1.0073427">
      <feGaussianBlur
         inkscape:collect="always"
         stdDeviation="0.02794372"
         id="feGaussianBlur59" />
    </filter>
    <linearGradient
       inkscape:collect="always"
       xlink:href="#swatch32"
       id="linearGradient59"
       gradientUnits="userSpaceOnUse"
       x1="91.464287"
       y1="110.33454"
       x2="175.27913"
       y2="110.33454" />
    <linearGradient
       inkscape:collect="always"
       xlink:href="#swatch32"
       id="linearGradient60"
       gradientUnits="userSpaceOnUse"
       x1="91.464287"
       y1="110.33454"
       x2="175.27913"
       y2="110.33454" />
    <linearGradient
       inkscape:collect="always"
       xlink:href="#swatch32"
       id="linearGradient61"
       gradientUnits="userSpaceOnUse"
       x1="91.464287"
       y1="110.33454"
       x2="175.27913"
       y2="110.33454" />
    <linearGradient
       inkscape:collect="always"
       xlink:href="#swatch32"
       id="linearGradient62"
       gradientUnits="userSpaceOnUse"
       x1="91.464287"
       y1="110.33454"
       x2="175.27913"
       y2="110.33454" />
    <linearGradient
       inkscape:collect="always"
       xlink:href="#swatch57"
       id="linearGradient63"
       gradientUnits="userSpaceOnUse"
       x1="91.464287"
       y1="110.33454"
       x2="175.27913"
       y2="110.33454" />
    <linearGradient
       inkscape:collect="always"
       xlink:href="#swatch57"
       id="linearGradient64"
       gradientUnits="userSpaceOnUse"
       x1="91.464287"
       y1="110.33454"
       x2="175.27913"
       y2="110.33454" />
    <linearGradient
       inkscape:collect="always"
       xlink:href="#swatch57"
       id="linearGradient65"
       gradientUnits="userSpaceOnUse"
       x1="91.464287"
       y1="110.33454"
       x2="175.27913"
       y2="110.33454" />
    <linearGradient
       inkscape:collect="always"
       xlink:href="#swatch57"
       id="linearGradient66"
       gradientUnits="userSpaceOnUse"
       x1="91.464287"
       y1="110.33454"
       x2="175.27913"
       y2="110.33454" />
    <linearGradient
       inkscape:collect="always"
       xlink:href="#swatch57"
       id="linearGradient67"
       gradientUnits="userSpaceOnUse"
       x1="91.464287"
       y1="110.33454"
       x2="175.27913"
       y2="110.33454" />
    <linearGradient
       inkscape:collect="always"
       xlink:href="#swatch57"
       id="linearGradient68"
       gradientUnits="userSpaceOnUse"
       x1="91.464287"
       y1="110.33454"
       x2="175.27913"
       y2="110.33454" />
    <linearGradient
       inkscape:collect="always"
       xlink:href="#swatch57"
       id="linearGradient69"
       gradientUnits="userSpaceOnUse"
       x1="91.464287"
       y1="110.33454"
       x2="175.27913"
       y2="110.33454" />
    <linearGradient
       inkscape:collect="always"
       xlink:href="#swatch57"
       id="linearGradient70"
       gradientUnits="userSpaceOnUse"
       x1="91.464287"
       y1="110.33454"
       x2="175.27913"
       y2="110.33454" />
    <linearGradient
       inkscape:collect="always"
       xlink:href="#swatch57"
       id="linearGradient71"
       gradientUnits="userSpaceOnUse"
       x1="91.464287"
       y1="110.33454"
       x2="175.27913"
       y2="110.33454" />
    <linearGradient
       inkscape:collect="always"
       xlink:href="#swatch57"
       id="linearGradient72"
       gradientUnits="userSpaceOnUse"
       x1="91.464287"
       y1="110.33454"
       x2="175.27913"
       y2="110.33454" />
  </defs>
  <sodipodi:namedview
     id="namedview11"
     pagecolor="#ffffff"
     bordercolor="#000000"
     borderopacity="0.25"
     inkscape:showpageshadow="2"
     inkscape:pageopacity="0.0"
     inkscape:pagecheckerboard="0"
     inkscape:deskcolor="#d1d1d1"
     showgrid="false"
     showguides="true"
     inkscape:zoom="4.8051199"
     inkscape:cx="55.773842"
     inkscape:cy="65.034797"
     inkscape:window-width="1440"
     inkscape:window-height="900"
     inkscape:window-x="1543"
     inkscape:window-y="25"
     inkscape:window-maximized="0"
     inkscape:current-layer="svg11" />
  <metadata
     id="metadata1">
    <rdf:RDF>
      <cc:Work
         rdf:about="">
        <dc:format>image/svg+xml</dc:format>
        <dc:type
           rdf:resource="http://purl.org/dc/dcmitype/StillImage" />
      </cc:Work>
    </rdf:RDF>
  </metadata>
  <rect
     style="display:none;mix-blend-mode:normal;fill:#1a1a1a;fill-opacity:1;stroke-width:0.672891;filter:url(#filter27)"
     id="rect27"
     width="71.999191"
     height="71.999191"
     x="7.7039137"
     y="7.7028985"
     rx="10.766301"
     inkscape:label="rect-shadow"
     transform="matrix(1.330805,0,0,1.330805,-14.857331,-14.856995)" />
  <rect
     style="display:none;fill:url(#linearGradient1);stroke-width:0.895515"
     id="rect11"
     width="95.816864"
     height="95.816864"
     x="-4.604917"
     y="-4.6059322"
     rx="14.327845" />
  <g
     transform="matrix(0.98643421,0,0,0.98643421,-88.21185,-65.701871)"
     id="g31"
     sodipodi:insensitive="true"
     style="display:inline;mix-blend-mode:normal;fill:url(#linearGradient57);filter:url(#filter59)"
     inkscape:label="g31-shad">
    <g
       transform="matrix(1.1401401,0,0,1.1401401,84.387969,67.954665)"
       id="g23"
       style="fill:url(#linearGradient62)">
      <path
         d="M 39.61,45.57 H 10.05 c -0.94,0 -1.7,-0.76 -1.7,-1.7 V 14.32 c 0,-0.94 0.76,-1.7 1.7,-1.7 h 29.56 c 0.94,0 1.7,0.76 1.7,1.7 v 29.56 c 0,0.93 -0.76,1.69 -1.7,1.69 z"
         fill="#697d91"
         id="path21"
         style="fill:url(#linearGradient59)" />
      <g
         fill="#fac300"
         id="g22"
         style="display:inline;fill:url(#linearGradient61)">
        <path
           class="st0"
           d="M 78.95,27.89 58.05,6.99 c -0.66,-0.66 -1.74,-0.66 -2.41,0 L 42.32,20.31 h 10.56 c 0.94,0 1.7,0.76 1.7,1.7 v 14.16 c 0,0.94 -0.76,1.7 -1.7,1.7 H 42.32 L 55.65,51.2 c 0.66,0.66 1.74,0.66 2.41,0 l 20.9,-20.9 c 0.66,-0.67 0.66,-1.74 -0.01,-2.41 z"
           fill="#fac300"
           id="path22"
           style="fill:url(#linearGradient60)" />
      </g>
    </g>
    <g
       transform="matrix(0.4747,0,0,0.4747,87.784531,105.51957)"
       fill="#697d91"
       id="g30"
       style="display:inline;mix-blend-mode:normal;fill:url(#linearGradient58);stroke:url(#linearGradient32)">
      <path
         d="M 10.48,74.67 V 52.58 h -1.9 v 22.09 c 0,5.74 4.67,10.42 10.42,10.42 v -1.9 c -4.7,-0.01 -8.52,-3.83 -8.52,-8.52 z"
         id="path23"
         style="fill:url(#linearGradient63);stroke:url(#linearGradient38)" />
      <path
         d="M 115.9,74.67 V 59.76 h 4.95 v -1.9 H 115.9 V 52.58 H 114 v 5.28 h -3.4 v 1.9 h 3.4 v 14.91 c 0,5.74 4.67,10.42 10.42,10.42 v -1.9 c -4.7,-0.01 -8.52,-3.83 -8.52,-8.52 z"
         id="path24"
         style="fill:url(#linearGradient64);stroke:url(#linearGradient40)" />
      <path
         d="M 47.6,69.46 V 84.7 h 1.9 V 69.46 c 0,-4.6 3.74,-8.35 8.35,-8.35 v -1.9 C 52.2,59.2 47.6,63.8 47.6,69.46 Z"
         id="path25"
         style="fill:url(#linearGradient65);stroke:url(#linearGradient42)" />
      <path
         d="m 72.66,58.97 c -5.7,0 -10.34,4.64 -10.34,10.34 V 84.7 h 1.9 V 69.31 c 0,-4.65 3.79,-8.44 8.44,-8.44 4.65,0 8.44,3.79 8.44,8.44 V 84.7 H 83 V 69.31 C 83,63.61 78.36,58.97 72.66,58.97 Z"
         id="path26"
         style="fill:url(#linearGradient66);stroke:url(#linearGradient44)" />
      <path
         d="m 42.45,69.36 c 0,-5.68 -4.63,-10.3 -10.31,-10.3 -5.68,0 -10.31,4.62 -10.31,10.31 v 5.41 c 0,5.68 4.63,10.3 10.31,10.3 4.34,0 8.24,-2.74 9.7,-6.83 l -1.79,-0.64 c -1.19,3.33 -4.37,5.57 -7.91,5.57 -4.63,0 -8.4,-3.77 -8.4,-8.4 v -1.14 l 18.71,-4.05 z m -18.71,0.01 c 0,-4.63 3.77,-8.4 8.4,-8.4 4.19,0 7.66,3.09 8.29,7.1 l -16.7,3.62 v -2.32 z"
         id="path27"
         style="fill:url(#linearGradient67);stroke:url(#linearGradient46)" />
      <path
         d="m 147.39,83.18 c -4.63,0 -8.4,-3.77 -8.4,-8.4 v -5.41 c 0,-4.63 3.77,-8.4 8.4,-8.4 3.29,0 6.3,1.94 7.66,4.94 l 1.73,-0.79 c -1.67,-3.68 -5.36,-6.05 -9.39,-6.05 -5.68,0 -10.31,4.62 -10.31,10.31 v 5.41 c 0,5.68 4.63,10.3 10.31,10.3 4.34,0 8.24,-2.74 9.71,-6.83 l -1.79,-0.64 c -1.2,3.32 -4.38,5.56 -7.92,5.56 z"
         id="path28"
         style="fill:url(#linearGradient68);stroke:url(#linearGradient48)" />
      <polygon
         points="163.48,71.04 163.48,52.58 161.58,52.58 161.58,84.69 163.48,84.69 163.48,73.36 167.5,70.59 182.23,84.84 183.56,83.47 169.1,69.48 181.91,60.66 180.83,59.09 "
         id="polygon28"
         style="fill:url(#linearGradient69);stroke:url(#linearGradient50)" />
      <path
         d="M 107.98,73.02 90.01,69.14 c 0.07,-4.57 3.81,-8.27 8.4,-8.27 3.54,0 6.72,2.24 7.91,5.57 l 1.79,-0.64 c -1.46,-4.08 -5.36,-6.83 -9.7,-6.83 -5.68,0 -10.3,4.62 -10.31,10.3 v 0.63 c 0,0.25 0.11,0.51 0.29,0.68 0.13,0.13 0.29,0.22 0.47,0.26 l 17.95,3.88 c -0.02,4.62 -3.78,8.37 -8.4,8.37 -3.63,0 -6.84,-2.31 -7.98,-5.76 l -1.81,0.6 c 1.4,4.23 5.33,7.06 9.79,7.06 5.68,0 10.31,-4.62 10.31,-10.3 l 0.01,-0.74 c 0.01,-0.45 -0.31,-0.84 -0.75,-0.93 z"
         id="path29"
         style="fill:url(#linearGradient70);stroke:url(#linearGradient52)" />
      <rect
         x="128.47"
         y="59.66"
         width="1.9"
         height="25.02"
         id="rect29"
         style="fill:url(#linearGradient71);stroke:url(#linearGradient54)" />
      <path
         d="m 129.42,52.51 c -0.71,0 -1.29,0.58 -1.29,1.29 0,0.71 0.58,1.29 1.29,1.29 0.71,0 1.29,-0.58 1.29,-1.29 0,-0.71 -0.58,-1.29 -1.29,-1.29 z"
         id="path30"
         style="fill:url(#linearGradient72);stroke:url(#linearGradient56)" />
    </g>
  </g>
  <g
     transform="matrix(0.9864342,0,0,0.9864342,-88.230514,-65.418198)"
     id="g11"
     sodipodi:insensitive="true"
     style="display:inline">
    <g
       transform="matrix(1.1388,0,0,1.1388,84.413,67.543)"
       id="g3">
      <path
         d="M 39.61,45.57 H 10.05 c -0.94,0 -1.7,-0.76 -1.7,-1.7 V 14.32 c 0,-0.94 0.76,-1.7 1.7,-1.7 h 29.56 c 0.94,0 1.7,0.76 1.7,1.7 v 29.56 c 0,0.93 -0.76,1.69 -1.7,1.69 z"
         fill="#697d91"
         id="path1" />
      <g
         fill="#fac300"
         id="g2">
        <path
           class="st0"
           d="M 78.95,27.89 58.05,6.99 c -0.66,-0.66 -1.74,-0.66 -2.41,0 L 42.32,20.31 h 10.56 c 0.94,0 1.7,0.76 1.7,1.7 v 14.16 c 0,0.94 -0.76,1.7 -1.7,1.7 H 42.32 L 55.65,51.2 c 0.66,0.66 1.74,0.66 2.41,0 l 20.9,-20.9 c 0.66,-0.67 0.66,-1.74 -0.01,-2.41 z"
           fill="#fac300"
           id="path2" />
      </g>
    </g>
    <g
       transform="matrix(0.4747,0,0,0.4747,87.718,105.1)"
       fill="#697d91"
       id="g10">
      <path
         d="M 10.48,74.67 V 52.58 h -1.9 v 22.09 c 0,5.74 4.67,10.42 10.42,10.42 v -1.9 c -4.7,-0.01 -8.52,-3.83 -8.52,-8.52 z"
         id="path3" />
      <path
         d="M 115.9,74.67 V 59.76 h 4.95 v -1.9 H 115.9 V 52.58 H 114 v 5.28 h -3.4 v 1.9 h 3.4 v 14.91 c 0,5.74 4.67,10.42 10.42,10.42 v -1.9 c -4.7,-0.01 -8.52,-3.83 -8.52,-8.52 z"
         id="path4" />
      <path
         d="M 47.6,69.46 V 84.7 h 1.9 V 69.46 c 0,-4.6 3.74,-8.35 8.35,-8.35 v -1.9 C 52.2,59.2 47.6,63.8 47.6,69.46 Z"
         id="path5" />
      <path
         d="m 72.66,58.97 c -5.7,0 -10.34,4.64 -10.34,10.34 V 84.7 h 1.9 V 69.31 c 0,-4.65 3.79,-8.44 8.44,-8.44 4.65,0 8.44,3.79 8.44,8.44 V 84.7 H 83 V 69.31 C 83,63.61 78.36,58.97 72.66,58.97 Z"
         id="path6" />
      <path
         d="m 42.45,69.36 c 0,-5.68 -4.63,-10.3 -10.31,-10.3 -5.68,0 -10.31,4.62 -10.31,10.31 v 5.41 c 0,5.68 4.63,10.3 10.31,10.3 4.34,0 8.24,-2.74 9.7,-6.83 l -1.79,-0.64 c -1.19,3.33 -4.37,5.57 -7.91,5.57 -4.63,0 -8.4,-3.77 -8.4,-8.4 v -1.14 l 18.71,-4.05 z m -18.71,0.01 c 0,-4.63 3.77,-8.4 8.4,-8.4 4.19,0 7.66,3.09 8.29,7.1 l -16.7,3.62 v -2.32 z"
         id="path7" />
      <path
         d="m 147.39,83.18 c -4.63,0 -8.4,-3.77 -8.4,-8.4 v -5.41 c 0,-4.63 3.77,-8.4 8.4,-8.4 3.29,0 6.3,1.94 7.66,4.94 l 1.73,-0.79 c -1.67,-3.68 -5.36,-6.05 -9.39,-6.05 -5.68,0 -10.31,4.62 -10.31,10.31 v 5.41 c 0,5.68 4.63,10.3 10.31,10.3 4.34,0 8.24,-2.74 9.71,-6.83 l -1.79,-0.64 c -1.2,3.32 -4.38,5.56 -7.92,5.56 z"
         id="path8" />
      <polygon
         points="180.83,59.09 163.48,71.04 163.48,52.58 161.58,52.58 161.58,84.69 163.48,84.69 163.48,73.36 167.5,70.59 182.23,84.84 183.56,83.47 169.1,69.48 181.91,60.66 "
         id="polygon8" />
      <path
         d="M 107.98,73.02 90.01,69.14 c 0.07,-4.57 3.81,-8.27 8.4,-8.27 3.54,0 6.72,2.24 7.91,5.57 l 1.79,-0.64 c -1.46,-4.08 -5.36,-6.83 -9.7,-6.83 -5.68,0 -10.3,4.62 -10.31,10.3 v 0.63 c 0,0.25 0.11,0.51 0.29,0.68 0.13,0.13 0.29,0.22 0.47,0.26 l 17.95,3.88 c -0.02,4.62 -3.78,8.37 -8.4,8.37 -3.63,0 -6.84,-2.31 -7.98,-5.76 l -1.81,0.6 c 1.4,4.23 5.33,7.06 9.79,7.06 5.68,0 10.31,-4.62 10.31,-10.3 l 0.01,-0.74 c 0.01,-0.45 -0.31,-0.84 -0.75,-0.93 z"
         id="path9" />
      <rect
         x="128.47"
         y="59.66"
         width="1.9"
         height="25.02"
         id="rect9" />
      <path
         d="m 129.42,52.51 c -0.71,0 -1.29,0.58 -1.29,1.29 0,0.71 0.58,1.29 1.29,1.29 0.71,0 1.29,-0.58 1.29,-1.29 0,-0.71 -0.58,-1.29 -1.29,-1.29 z"
         id="path10" />
    </g>
  </g>
</svg>
